<?xml version="1.0" encoding="utf-8"?>
<!-- Generator: Adobe Illustrator 25.0.1, SVG Export Plug-In . SVG Version: 6.00 Build 0)  -->
<svg version="1.1" id="Layer_1" xmlns="http://www.w3.org/2000/svg" xmlns:xlink="http://www.w3.org/1999/xlink" x="0px" y="0px"
	 viewBox="0 0 801.3 445" style="enable-background:new 0 0 801.3 445;" xml:space="preserve">
<style type="text/css">
	.st0{fill:#FFFFFF;}
</style>
<polygon class="st0" points="23.5,87.3 24.2,87.3 46.3,143.2 59.7,143.2 81.8,87.5 82.6,87.5 82.6,143.8 103.3,143.8 103.3,53.3 
	76.9,53.3 53.6,110.2 52.5,110.2 29.1,53.3 2.8,53.3 2.8,143.8 23.5,143.8 "/>
<path class="st0" d="M141.4,124.4h31.5l6.1,19.4h22.9l-30.7-90.5h-28.2l-30.6,90.5h22.9L141.4,124.4z M157.6,75.6l10.2,32.4h-21.2
	l10.2-32.4H157.6z"/>
<path class="st0" d="M232.3,112.6h11.8l16.5,31.2h23.4l-18.9-34.6h0.1c4.8-2.1,8.9-5.6,11.6-10.1c2.8-4.8,4.2-10.2,4-15.8
	c0.1-5.6-1.3-11.1-4-16c-2.6-4.5-6.6-8.2-11.3-10.4c-5.5-2.6-11.5-3.8-17.6-3.7h-37v90.5h21.3V112.6z M243.5,70.5
	c2.9-0.1,5.8,0.4,8.5,1.4c2.1,0.8,3.9,2.3,5.2,4.2c1.2,2.2,1.8,4.6,1.8,7.1c0.1,2.4-0.5,4.8-1.8,6.9c-1.2,1.9-3,3.3-5.1,4.1
	c-2.7,1-5.6,1.4-8.5,1.4h-11.3V70.5H243.5z"/>
<polygon class="st0" points="313.6,119 322.5,107.8 345.5,143.8 371,143.8 338.1,93.6 370.5,53.3 345.3,53.3 314.8,91.9 313.6,91.9 
	313.6,53.3 292.3,53.3 292.3,143.8 313.6,143.8 "/>
<rect x="376.5" y="90.3" class="st0" width="41.8" height="16.3"/>
<path class="st0" d="M450.9,140.8c12.8,5.5,27.2,5.5,40,0c5.5-2.5,10.1-6.5,13.4-11.6c3.2-5.2,4.9-11.3,4.8-17.4V53.3h-21.3v56.6
	c0,3-0.7,5.9-2.1,8.5c-1.4,2.5-3.4,4.5-5.9,5.9c-2.7,1.5-5.8,2.2-8.9,2.1c-3,0.1-6-0.7-8.7-2.1c-2.5-1.4-4.6-3.4-6-5.9
	c-1.5-2.6-2.2-5.5-2.2-8.5V53.3h-21.2v58.4c-0.1,6.1,1.5,12.2,4.8,17.4C440.8,134.2,445.4,138.3,450.9,140.8z"/>
<path class="st0" d="M588,100.7c2.8-5,4.2-10.6,4.1-16.3c0.1-5.7-1.3-11.3-4-16.3c-2.6-4.7-6.6-8.5-11.4-11
	c-5.4-2.7-11.4-4.1-17.5-3.9h-37v90.5h21.2v-28.4h15.1c6.2,0.1,12.2-1.2,17.8-3.8C581.2,109.2,585.3,105.4,588,100.7z M568.3,91.9
	c-1.2,2.1-3,3.8-5.2,4.9c-2.6,1.2-5.5,1.8-8.4,1.7h-11.3v-28h11.2c2.9-0.1,5.8,0.5,8.5,1.7c2.2,1,4,2.7,5.2,4.8
	c1.2,2.3,1.8,4.9,1.8,7.4C570.2,87.1,569.6,89.6,568.3,91.9z"/>
<path class="st0" d="M45.8,240.5l-7.9-1.8c-3.6-0.7-7-2-10.1-3.9c-2.2-1.3-3.4-3.7-3.3-6.3c0-1.7,0.5-3.3,1.5-4.6
	c1.1-1.4,2.7-2.5,4.4-3.1c2.3-0.8,4.7-1.2,7.1-1.1c2.5-0.1,5.1,0.3,7.4,1.2c1.9,0.7,3.6,2,4.8,3.6c1.2,1.7,1.8,3.6,2,5.7h20.5
	c0.1-5.2-1.5-10.4-4.3-14.8c-3-4.4-7.2-7.8-12.1-9.9c-5.7-2.4-11.9-3.6-18.1-3.5c-6.2-0.1-12.4,1.1-18.2,3.5
	c-5,2.1-9.3,5.5-12.5,9.8c-3,4.3-4.6,9.4-4.5,14.6c0,6.7,2.1,12,6.4,16.1c4.3,4.1,10.5,7,18.6,8.9l9.5,2.2c2.9,0.6,5.6,1.5,8.3,2.6
	c1.8,0.7,3.4,1.8,4.8,3.2c1,1.2,1.6,2.8,1.6,4.4c0,1.8-0.6,3.6-1.7,5.1c-1.3,1.6-3.1,2.8-5,3.4c-2.5,0.9-5.1,1.3-7.8,1.2
	c-2.9,0.1-5.8-0.5-8.5-1.5c-2.3-0.9-4.3-2.4-5.7-4.4c-1.5-2.2-2.3-4.7-2.4-7.3H0c0.2,6.8,1.8,12.6,4.8,17.1
	c3.2,4.7,7.7,8.3,12.9,10.4c6.3,2.4,13,3.6,19.8,3.4c7.5,0,13.9-1.1,19.2-3.3c4.9-1.9,9.2-5.2,12.3-9.4c2.9-4.3,4.4-9.5,4.3-14.7
	c-0.1-7.2-2.4-13-7-17.4C61.7,245.7,54.9,242.5,45.8,240.5z"/>
<polygon class="st0" points="108.3,293.8 129.3,293.8 129.3,220.6 156.9,220.6 156.9,203.3 80.7,203.3 80.7,220.6 108.3,220.6 "/>
<polygon class="st0" points="162.2,203.3 195.4,263.1 195.4,293.8 216.5,293.8 216.5,263.1 249.7,203.3 225.8,203.3 206.4,241.3 
	205.6,241.3 186.1,203.3 "/>
<polygon class="st0" points="317.3,276.4 279.4,276.4 279.4,203.3 258.1,203.3 258.1,293.8 317.3,293.8 "/>
<polygon class="st0" points="390.8,220.6 390.8,203.3 328.1,203.3 328.1,293.8 390.8,293.8 390.8,276.4 349.3,276.4 349.3,257.1 
	387.5,257.1 387.5,239.8 349.3,239.8 349.3,220.6 "/>
<path class="st0" d="M446.8,240.5l-7.9-1.8c-3.6-0.7-7-2-10.1-3.9c-2.2-1.3-3.4-3.7-3.3-6.3c0-1.7,0.5-3.3,1.5-4.6
	c1.1-1.4,2.7-2.5,4.4-3.1c2.3-0.8,4.7-1.2,7.1-1.1c2.5-0.1,5.1,0.3,7.4,1.2c1.9,0.7,3.6,2,4.8,3.6c1.2,1.7,1.9,3.6,2,5.7h20.4
	c0.1-5.2-1.5-10.4-4.3-14.8c-3-4.4-7.2-7.8-12.1-9.9c-5.7-2.4-11.9-3.6-18.1-3.5c-6.2-0.1-12.4,1.1-18.2,3.5
	c-5,2.1-9.3,5.5-12.5,9.8c-3,4.3-4.6,9.4-4.5,14.6c0,6.7,2.1,12,6.4,16.1c4.3,4.1,10.5,7,18.6,8.9l9.5,2.2c2.9,0.6,5.7,1.5,8.4,2.6
	c1.8,0.7,3.4,1.8,4.8,3.2c1,1.2,1.6,2.8,1.6,4.4c0,1.8-0.6,3.6-1.7,5.1c-1.3,1.6-3.1,2.8-5,3.4c-2.5,0.9-5.1,1.3-7.8,1.2
	c-2.9,0.1-5.8-0.5-8.5-1.5c-2.3-0.9-4.3-2.4-5.7-4.4c-1.5-2.2-2.3-4.7-2.4-7.3H401c0.2,6.8,1.8,12.6,4.8,17.1
	c3.1,4.7,7.7,8.3,12.9,10.4c6.3,2.4,13.1,3.6,19.8,3.4c7.5,0,13.9-1.1,19.2-3.3c4.9-1.9,9.2-5.2,12.3-9.4c2.9-4.3,4.4-9.5,4.3-14.7
	c-0.1-7.2-2.4-13-7.1-17.4C462.7,245.7,455.8,242.5,446.8,240.5z"/>
<polygon class="st0" points="542.5,239.8 506.1,239.8 506.1,203.3 484.9,203.3 484.9,293.8 506.1,293.8 506.1,257.1 542.5,257.1 
	542.5,293.8 563.8,293.8 563.8,203.3 542.5,203.3 "/>
<polygon class="st0" points="577,293.8 639.7,293.8 639.7,276.4 598.2,276.4 598.2,257.1 636.4,257.1 636.4,239.8 598.2,239.8 
	598.2,220.6 639.7,220.6 639.7,203.3 577,203.3 "/>
<polygon class="st0" points="652.7,293.8 715.3,293.8 715.3,276.4 673.9,276.4 673.9,257.1 712.1,257.1 712.1,239.8 673.9,239.8 
	673.9,220.6 715.3,220.6 715.3,203.3 652.7,203.3 "/>
<polygon class="st0" points="725.2,203.3 725.2,220.6 752.8,220.6 752.8,293.8 773.8,293.8 773.8,220.6 801.3,220.6 801.3,203.3 "/>
<path class="st0" d="M45.8,390.5l-7.9-1.8c-3.6-0.7-7-2-10.1-3.9c-2.2-1.3-3.4-3.7-3.3-6.3c0-1.7,0.5-3.3,1.5-4.6
	c1.1-1.4,2.7-2.5,4.4-3.1c2.3-0.8,4.7-1.2,7.1-1.1c2.5-0.1,5.1,0.3,7.4,1.2c1.9,0.7,3.6,2,4.8,3.6c1.2,1.7,1.8,3.6,2,5.7h20.5
	c0.1-5.2-1.5-10.4-4.3-14.8c-3-4.4-7.2-7.8-12.1-9.9c-5.7-2.4-11.9-3.6-18.1-3.5c-6.2-0.1-12.4,1.1-18.2,3.5
	c-5,2.1-9.3,5.5-12.5,9.9c-3,4.2-4.6,9.4-4.5,14.6c0,6.7,2.1,12,6.4,16.1s10.5,7,18.6,8.9l9.5,2.2c2.9,0.6,5.6,1.5,8.3,2.6
	c1.8,0.7,3.4,1.8,4.8,3.2c1,1.2,1.6,2.8,1.6,4.4c0,1.8-0.6,3.6-1.7,5.1c-1.3,1.6-3.1,2.8-5,3.4c-2.5,0.9-5.1,1.3-7.8,1.2
	c-2.9,0.1-5.8-0.5-8.5-1.5c-2.3-0.9-4.3-2.4-5.7-4.4c-1.5-2.2-2.3-4.7-2.4-7.3H0c0.2,6.8,1.8,12.5,4.8,17.1
	c3.2,4.7,7.7,8.3,12.9,10.4c6.3,2.4,13,3.6,19.8,3.4c7.5,0,13.9-1.1,19.2-3.3c4.9-1.9,9.2-5.2,12.3-9.4c2.9-4.3,4.4-9.5,4.3-14.7
	c-0.1-7.2-2.4-13-7-17.4S54.9,392.5,45.8,390.5z"/>
<path class="st0" d="M114.5,374c3.4-2.3,7.4-3.4,11.5-3.3c3.1-0.1,6.1,0.6,8.8,1.8c2.5,1.2,4.7,3,6.2,5.2c1.6,2.4,2.6,5.1,2.8,8
	h21.6c-0.6-6.5-2.8-12.8-6.5-18.2c-3.5-5.1-8.4-9.1-14-11.6c-6.1-2.7-12.8-4.1-19.5-4c-7.6-0.1-15.2,1.8-21.9,5.4
	c-6.5,3.7-11.9,9.3-15.3,16c-3.7,7-5.6,15.4-5.6,25.1s1.8,18.1,5.5,25c3.4,6.7,8.7,12.3,15.2,16c6.7,3.7,14.3,5.6,22,5.5
	c7.1,0.2,14.1-1.5,20.5-4.7c5.5-2.8,10.3-7,13.8-12.2c3.2-4.7,5.2-10.2,5.9-15.9l-21.6-0.2c-0.4,2.8-1.5,5.4-3.2,7.6
	c-1.6,2.1-3.8,3.8-6.2,4.9c-2.7,1.2-5.7,1.8-8.7,1.8c-4,0.1-8-1-11.3-3.2c-3.4-2.3-5.9-5.6-7.4-9.4c-1.9-4.8-2.8-10-2.6-15.2
	c-0.1-5.1,0.8-10.2,2.6-15C108.6,379.7,111.2,376.4,114.5,374z"/>
<path class="st0" d="M231.6,409.1c4.8-2.1,8.9-5.6,11.6-10.1c2.8-4.8,4.2-10.2,4-15.8c0.1-5.6-1.3-11.1-4-16
	c-2.7-4.5-6.6-8.2-11.4-10.4c-5.5-2.5-11.5-3.8-17.5-3.6h-37v90.5h21.2v-31.2h11.8l16.6,31.2h23.4l-18.9-34.6L231.6,409.1z
	 M198.6,370.5h11.2c2.9-0.1,5.8,0.4,8.5,1.4c2.1,0.8,3.9,2.3,5.2,4.2c1.2,2.2,1.8,4.6,1.8,7.1c0.1,2.4-0.5,4.8-1.8,6.9
	c-1.2,1.9-3,3.3-5.1,4c-2.7,1-5.6,1.4-8.5,1.4h-11.3L198.6,370.5z"/>
<rect x="258.6" y="353.3" class="st0" width="21.2" height="90.5"/>
<path class="st0" d="M347.6,357.2c-5.4-2.7-11.4-4.1-17.5-3.9h-37v90.5h21.3v-28.4h15.1c6.2,0.1,12.3-1.2,17.8-3.9
	c4.9-2.4,8.9-6.1,11.6-10.8c2.8-5,4.2-10.6,4.1-16.3c0.1-5.7-1.3-11.3-4-16.3C356.4,363.5,352.4,359.6,347.6,357.2z M339.2,391.9
	c-1.2,2.1-3,3.8-5.2,4.9c-2.6,1.2-5.5,1.8-8.4,1.7h-11.3v-28h11.2c2.9-0.1,5.8,0.5,8.5,1.7c2.2,1,4,2.7,5.1,4.8
	c1.2,2.3,1.8,4.9,1.8,7.4C341,387.1,340.4,389.6,339.2,391.9z"/>
<polygon class="st0" points="370,370.6 397.6,370.6 397.6,443.8 418.6,443.8 418.6,370.6 446.1,370.6 446.1,353.3 370,353.3 "/>
<g>
	<polygon class="st0" points="6.7,0.8 3.7,0.8 3.7,13.5 12,13.5 12,11.1 6.7,11.1 	"/>
	<path class="st0" d="M20.3,4.4c-0.7-0.4-1.5-0.6-2.4-0.6c-0.9,0-1.8,0.2-2.5,0.6s-1.3,1-1.7,1.7s-0.6,1.6-0.6,2.6
		c0,1,0.2,1.9,0.6,2.6s0.9,1.3,1.7,1.7s1.6,0.6,2.6,0.6c0.8,0,1.5-0.1,2.2-0.4c0.6-0.2,1.1-0.6,1.5-1.1c0.4-0.5,0.6-1,0.8-1.6h-2.8
		c-0.1,0.2-0.2,0.3-0.3,0.5c-0.2,0.1-0.3,0.2-0.6,0.3s-0.5,0.1-0.7,0.1c-0.4,0-0.7-0.1-1-0.2s-0.5-0.4-0.7-0.7s-0.2-0.7-0.2-1.1V9.5
		h6.4V8.7c0-1-0.2-1.9-0.6-2.6S21,4.8,20.3,4.4z M16.1,7.8c0-0.3,0.1-0.6,0.2-0.9c0.2-0.3,0.4-0.5,0.7-0.6S17.6,6,18,6
		c0.3,0,0.6,0.1,0.9,0.2c0.3,0.1,0.5,0.4,0.6,0.6c0.2,0.3,0.2,0.6,0.2,0.9H16.1z"/>
	<path class="st0" d="M30.8,4.4c-0.7-0.4-1.5-0.6-2.4-0.6c-0.9,0-1.8,0.2-2.5,0.6s-1.3,1-1.7,1.7s-0.6,1.6-0.6,2.6
		c0,1,0.2,1.9,0.6,2.6s0.9,1.3,1.7,1.7s1.6,0.6,2.6,0.6c0.8,0,1.5-0.1,2.2-0.4c0.6-0.2,1.1-0.6,1.5-1.1c0.4-0.5,0.6-1,0.8-1.6h-2.8
		c-0.1,0.2-0.2,0.3-0.3,0.5c-0.2,0.1-0.3,0.2-0.6,0.3s-0.5,0.1-0.7,0.1c-0.4,0-0.7-0.1-1-0.2s-0.5-0.4-0.7-0.7s-0.2-0.7-0.2-1.1V9.5
		h6.4V8.7c0-1-0.2-1.9-0.6-2.6S31.4,4.8,30.8,4.4z M26.6,7.8c0-0.3,0.1-0.6,0.2-0.9c0.2-0.3,0.4-0.5,0.7-0.6S28.1,6,28.4,6
		c0.3,0,0.6,0.1,0.9,0.2c0.3,0.1,0.5,0.4,0.6,0.6c0.2,0.3,0.2,0.6,0.2,0.9H26.6z"/>
	<path class="st0" d="M43.6,9.6c0,0.6-0.1,1-0.4,1.3s-0.6,0.4-1,0.4c-0.3,0-0.5-0.1-0.7-0.2c-0.2-0.1-0.4-0.3-0.5-0.5
		c-0.1-0.2-0.2-0.5-0.2-0.8h-3c0,0.9,0.2,1.6,0.6,2.2s0.9,1,1.5,1.3c0.6,0.3,1.4,0.4,2.2,0.4c0.9,0,1.7-0.2,2.4-0.5
		c0.7-0.3,1.2-0.8,1.6-1.4s0.6-1.3,0.6-2.1V0.8h-3V9.6z"/>
	<path class="st0" d="M54.6,9.4c0,0.4-0.1,0.7-0.2,1s-0.3,0.5-0.6,0.6s-0.5,0.2-0.9,0.2c-0.3,0-0.6-0.1-0.8-0.2
		c-0.2-0.1-0.4-0.3-0.5-0.6s-0.2-0.6-0.2-0.9V4h-3v6.1c0,0.7,0.1,1.3,0.4,1.9c0.3,0.5,0.7,1,1.2,1.3s1.1,0.4,1.7,0.4
		c0.7,0,1.3-0.2,1.8-0.5s0.9-0.8,1.1-1.4h0.1v1.8h2.8V4h-3V9.4z"/>
	<path class="st0" d="M67,4.3c-0.5-0.3-1.1-0.4-1.7-0.4c-0.7,0-1.3,0.2-1.8,0.5s-0.9,0.8-1.1,1.4h-0.1V4h-2.8v9.5h3V8.1
		c0-0.4,0.1-0.7,0.2-0.9s0.3-0.5,0.6-0.6s0.5-0.2,0.9-0.2c0.3,0,0.6,0.1,0.9,0.2s0.4,0.3,0.5,0.6c0.1,0.3,0.2,0.6,0.2,0.9v5.5h3V7.5
		c0-0.7-0.1-1.3-0.4-1.9C67.9,5,67.5,4.6,67,4.3z"/>
	<path class="st0" d="M76.7,5.6L76.7,5.6C76.4,5.3,76.2,5,76,4.7s-0.5-0.5-0.9-0.6c-0.4-0.2-0.8-0.2-1.3-0.2c-0.7,0-1.3,0.2-1.9,0.5
		s-1,0.9-1.4,1.6s-0.5,1.6-0.5,2.7c0,1,0.2,1.9,0.5,2.6s0.8,1.2,1.4,1.6s1.2,0.5,1.9,0.5c0.5,0,0.9-0.1,1.2-0.2
		c0.4-0.1,0.7-0.3,0.9-0.5s0.4-0.5,0.6-0.8h0.1v1.7c0,0.6-0.2,1-0.5,1.3s-0.8,0.4-1.3,0.4c-0.5,0-0.9-0.1-1.2-0.2s-0.5-0.4-0.5-0.8
		h-2.9c0,0.6,0.3,1.1,0.6,1.6c0.4,0.5,0.9,0.8,1.6,1.1s1.4,0.4,2.3,0.4c1,0,1.8-0.1,2.5-0.4s1.3-0.7,1.7-1.3s0.6-1.2,0.6-2V4h-3V5.6
		z M76.5,10.1c-0.1,0.4-0.4,0.7-0.6,0.9c-0.3,0.2-0.6,0.3-1,0.3s-0.7-0.1-1-0.3s-0.5-0.5-0.6-0.9s-0.2-0.8-0.2-1.3s0.1-1,0.2-1.3
		s0.3-0.7,0.6-0.9s0.6-0.3,1-0.3c0.4,0,0.7,0.1,1,0.3s0.5,0.5,0.6,0.9s0.2,0.8,0.2,1.4C76.7,9.3,76.7,9.7,76.5,10.1z"/>
	<polygon class="st0" points="99.4,0.8 97.5,9.3 97.4,9.3 95.2,0.8 92.4,0.8 90.2,9.2 90.1,9.2 88.1,0.8 84.8,0.8 88.5,13.5 
		91.4,13.5 93.8,5.7 93.8,5.7 96.2,13.5 99.1,13.5 102.7,0.8 	"/>
	<path class="st0" d="M109.9,4.5c-0.7-0.4-1.6-0.6-2.6-0.6s-1.8,0.2-2.6,0.6c-0.7,0.4-1.3,1-1.7,1.7s-0.6,1.6-0.6,2.6
		c0,1,0.2,1.8,0.6,2.6s0.9,1.3,1.7,1.7c0.7,0.4,1.6,0.6,2.6,0.6s1.8-0.2,2.6-0.6s1.3-1,1.7-1.7s0.6-1.6,0.6-2.6c0-1-0.2-1.8-0.6-2.6
		S110.6,4.9,109.9,4.5z M108.9,10.2c-0.1,0.4-0.3,0.7-0.6,1s-0.6,0.3-1,0.3c-0.4,0-0.7-0.1-1-0.3c-0.3-0.2-0.5-0.5-0.6-0.9
		s-0.2-0.9-0.2-1.4c0-0.5,0.1-1,0.2-1.4s0.3-0.7,0.6-0.9c0.3-0.2,0.6-0.3,1-0.3c0.4,0,0.7,0.1,1,0.3s0.5,0.5,0.6,1
		c0.1,0.4,0.2,0.9,0.2,1.4C109.1,9.3,109,9.8,108.9,10.2z"/>
	<path class="st0" d="M120.6,4.5c-0.7-0.4-1.6-0.6-2.6-0.6s-1.8,0.2-2.6,0.6c-0.7,0.4-1.3,1-1.7,1.7s-0.6,1.6-0.6,2.6
		c0,1,0.2,1.8,0.6,2.6s0.9,1.3,1.7,1.7c0.7,0.4,1.6,0.6,2.6,0.6s1.8-0.2,2.6-0.6s1.3-1,1.7-1.7s0.6-1.6,0.6-2.6c0-1-0.2-1.8-0.6-2.6
		S121.3,4.9,120.6,4.5z M119.6,10.2c-0.1,0.4-0.3,0.7-0.6,1s-0.6,0.3-1,0.3c-0.4,0-0.7-0.1-1-0.3c-0.3-0.2-0.5-0.5-0.6-0.9
		s-0.2-0.9-0.2-1.4c0-0.5,0.1-1,0.2-1.4s0.3-0.7,0.6-0.9c0.3-0.2,0.6-0.3,1-0.3c0.4,0,0.7,0.1,1,0.3s0.5,0.5,0.6,1
		c0.1,0.4,0.2,0.9,0.2,1.4C119.8,9.3,119.7,9.8,119.6,10.2z"/>
	<path class="st0" d="M131.9,4.3c-0.5-0.3-1.1-0.4-1.7-0.4c-0.7,0-1.3,0.2-1.8,0.5s-0.9,0.8-1.1,1.4h-0.1V4h-2.8v9.5h3V8.1
		c0-0.4,0.1-0.7,0.2-0.9s0.3-0.5,0.6-0.6s0.5-0.2,0.9-0.2c0.3,0,0.6,0.1,0.9,0.2s0.4,0.3,0.5,0.6c0.1,0.3,0.2,0.6,0.2,0.9v5.5h3V7.5
		c0-0.7-0.1-1.3-0.4-1.9C132.8,5,132.4,4.6,131.9,4.3z"/>
	<polygon class="st0" points="135,5.9 137.1,5.9 138.6,0.8 135.9,0.8 	"/>
	<path class="st0" d="M144.8,7.9l-1.8-0.4c-0.4-0.1-0.7-0.2-0.8-0.3c-0.2-0.1-0.3-0.3-0.2-0.5c0-0.2,0.1-0.3,0.2-0.4
		c0.1-0.1,0.3-0.2,0.5-0.3s0.4-0.1,0.7-0.1c0.4,0,0.7,0.1,1,0.3s0.4,0.4,0.5,0.8h2.8c0-0.6-0.2-1.2-0.6-1.6s-0.8-0.8-1.5-1.1
		c-0.6-0.2-1.4-0.4-2.2-0.4c-0.9,0-1.6,0.1-2.2,0.4s-1.1,0.6-1.5,1s-0.5,1-0.5,1.6c0,0.7,0.2,1.3,0.7,1.8s1.2,0.8,2.1,1l1.6,0.3
		c0.4,0.1,0.7,0.2,0.9,0.3c0.2,0.1,0.3,0.3,0.3,0.5c0,0.2-0.1,0.3-0.2,0.4c-0.1,0.1-0.3,0.2-0.5,0.3s-0.4,0.1-0.7,0.1
		c-0.4,0-0.8-0.1-1.1-0.3s-0.4-0.4-0.5-0.8h-3c0.1,0.6,0.3,1.2,0.7,1.7s0.9,0.8,1.5,1.1c0.7,0.3,1.4,0.4,2.3,0.4
		c0.9,0,1.6-0.1,2.3-0.4c0.7-0.3,1.2-0.6,1.5-1.1c0.4-0.5,0.6-1,0.6-1.7c0-0.7-0.2-1.3-0.7-1.7S145.7,8.1,144.8,7.9z"/>
	<path class="st0" d="M160.7,1.4c-0.7-0.4-1.5-0.5-2.5-0.5H153v12.7h3v-4h2.1c1,0,1.8-0.2,2.5-0.5s1.3-0.9,1.6-1.5
		c0.4-0.7,0.6-1.4,0.6-2.3c0-0.9-0.2-1.6-0.6-2.3S161.4,1.7,160.7,1.4z M159.5,6.3c-0.2,0.3-0.4,0.5-0.7,0.7s-0.7,0.2-1.2,0.2H156
		V3.2h1.6c0.5,0,0.9,0.1,1.2,0.2c0.3,0.2,0.6,0.4,0.7,0.7s0.2,0.6,0.2,1S159.7,6,159.5,6.3z"/>
	<path class="st0" d="M171.1,4.5c-0.7-0.4-1.6-0.6-2.6-0.6s-1.8,0.2-2.6,0.6c-0.7,0.4-1.3,1-1.7,1.7s-0.6,1.6-0.6,2.6
		c0,1,0.2,1.8,0.6,2.6s0.9,1.3,1.7,1.7c0.7,0.4,1.6,0.6,2.6,0.6s1.8-0.2,2.6-0.6s1.3-1,1.7-1.7s0.6-1.6,0.6-2.6c0-1-0.2-1.8-0.6-2.6
		S171.9,4.9,171.1,4.5z M170.2,10.2c-0.1,0.4-0.3,0.7-0.6,1s-0.6,0.3-1,0.3c-0.4,0-0.7-0.1-1-0.3c-0.3-0.2-0.5-0.5-0.6-0.9
		s-0.2-0.9-0.2-1.4c0-0.5,0.1-1,0.2-1.4s0.3-0.7,0.6-0.9c0.3-0.2,0.6-0.3,1-0.3c0.4,0,0.7,0.1,1,0.3s0.5,0.5,0.6,1
		c0.1,0.4,0.2,0.9,0.2,1.4C170.4,9.3,170.3,9.8,170.2,10.2z"/>
	<path class="st0" d="M178.7,4.3c-0.4,0.3-0.7,0.8-0.8,1.4h-0.1V4h-2.9v9.5h3V8.3c0-0.4,0.1-0.7,0.2-1c0.2-0.3,0.4-0.5,0.7-0.7
		s0.6-0.2,1-0.2c0.2,0,0.4,0,0.6,0s0.4,0.1,0.5,0.1V4c-0.3-0.1-0.6-0.1-0.8-0.1C179.6,3.9,179.1,4,178.7,4.3z"/>
	<path class="st0" d="M186.5,11.3c-0.1,0-0.2-0.1-0.3-0.3c-0.1-0.1-0.1-0.3-0.1-0.5V6.2h1.7V4h-1.7V1.7h-3V4h-1.3v2.2h1.3v4.7
		c0,0.6,0.1,1.1,0.4,1.6c0.3,0.4,0.7,0.7,1.2,0.9c0.5,0.2,1.1,0.3,1.8,0.3c0.6,0,1,0,1.5-0.1v-2.3c-0.5,0-0.8,0.1-1.1,0
		C186.8,11.3,186.6,11.3,186.5,11.3z"/>
	<path class="st0" d="M193.2,0.2c-0.7,0-1.2,0.1-1.7,0.4s-0.9,0.6-1.1,1.1c-0.3,0.5-0.4,1.1-0.4,1.8V4h-1.3v2.2h1.3v7.4h3V6.2h1.8V4
		h-1.8V3.5c0-0.3,0.1-0.6,0.3-0.8c0.2-0.2,0.5-0.2,0.9-0.2c0.1,0,0.4,0,0.8,0.1V0.4c-0.3-0.1-0.5-0.1-0.8-0.1S193.5,0.2,193.2,0.2z"
		/>
	<path class="st0" d="M202.8,4.5c-0.7-0.4-1.6-0.6-2.6-0.6s-1.8,0.2-2.6,0.6c-0.7,0.4-1.3,1-1.7,1.7s-0.6,1.6-0.6,2.6
		c0,1,0.2,1.8,0.6,2.6s0.9,1.3,1.7,1.7c0.7,0.4,1.6,0.6,2.6,0.6s1.8-0.2,2.6-0.6s1.3-1,1.7-1.7s0.6-1.6,0.6-2.6c0-1-0.2-1.8-0.6-2.6
		S203.5,4.9,202.8,4.5z M201.8,10.2c-0.1,0.4-0.3,0.7-0.6,1s-0.6,0.3-1,0.3c-0.4,0-0.7-0.1-1-0.3c-0.3-0.2-0.5-0.5-0.6-0.9
		s-0.2-0.9-0.2-1.4c0-0.5,0.1-1,0.2-1.4s0.3-0.7,0.6-0.9c0.3-0.2,0.6-0.3,1-0.3c0.4,0,0.7,0.1,1,0.3s0.5,0.5,0.6,1
		c0.1,0.4,0.2,0.9,0.2,1.4C202,9.3,201.9,9.8,201.8,10.2z"/>
	<rect x="206.5" y="0.8" class="st0" width="3" height="12.7"/>
	<path class="st0" d="M213.6,0.2c-0.2-0.1-0.5-0.2-0.8-0.2c-0.3,0-0.5,0.1-0.8,0.2s-0.4,0.3-0.6,0.5c-0.1,0.2-0.2,0.5-0.2,0.7
		c0,0.3,0.1,0.5,0.2,0.7c0.1,0.2,0.3,0.4,0.6,0.5s0.5,0.2,0.8,0.2c0.3,0,0.5-0.1,0.8-0.2s0.4-0.3,0.6-0.5s0.2-0.5,0.2-0.7
		c0-0.3-0.1-0.5-0.2-0.7S213.8,0.3,213.6,0.2z"/>
	<rect x="211.3" y="4" class="st0" width="3" height="9.5"/>
	<path class="st0" d="M224.8,6.2c-0.4-0.7-0.9-1.3-1.7-1.7s-1.6-0.6-2.6-0.6s-1.8,0.2-2.6,0.6c-0.7,0.4-1.3,1-1.7,1.7
		s-0.6,1.6-0.6,2.6c0,1,0.2,1.8,0.6,2.6s0.9,1.3,1.7,1.7c0.7,0.4,1.6,0.6,2.6,0.6s1.8-0.2,2.6-0.6s1.3-1,1.7-1.7s0.6-1.6,0.6-2.6
		C225.4,7.8,225.2,7,224.8,6.2z M222.2,10.2c-0.1,0.4-0.3,0.7-0.6,1s-0.6,0.3-1,0.3c-0.4,0-0.7-0.1-1-0.3c-0.3-0.2-0.5-0.5-0.6-0.9
		s-0.2-0.9-0.2-1.4c0-0.5,0.1-1,0.2-1.4s0.3-0.7,0.6-0.9c0.3-0.2,0.6-0.3,1-0.3c0.4,0,0.7,0.1,1,0.3s0.5,0.5,0.6,1
		c0.1,0.4,0.2,0.9,0.2,1.4C222.4,9.3,222.3,9.8,222.2,10.2z"/>
</g>
</svg>
